<svg xmlns="http://www.w3.org/2000/svg" viewBox="0 0 25 25" id="figma"><g data-name="Layer 2"><g data-name="Layer 1 copy"><g data-name="figma round"><circle cx="12.5" cy="12.5" r="7.85" fill="#525967"></circle><path fill="#454b57" d="M12.5 5.25a7.25 7.25 0 1 1-7.25 7.25 7.26 7.26 0 0 1 7.25-7.25m0-.6a7.85 7.85 0 1 0 7.85 7.85 7.85 7.85 0 0 0-7.85-7.85z"></path><path fill="none" d="M0 0h25v25H0z"></path><g data-name="ads manager"><path fill="#0acf83" d="M11 17.11a1.54 1.54 0 0 0 1.54-1.54V14H11a1.54 1.54 0 0 0 0 3.08z" data-name="path0 fill"></path><path fill="#a259ff" d="M9.42 12.5A1.54 1.54 0 0 1 11 11h1.5v3H11a1.54 1.54 0 0 1-1.58-1.5z" data-name="path1 fill"></path><path fill="#f24e1e" d="M9.42 9.42A1.54 1.54 0 0 1 11 7.89h1.5V11H11a1.54 1.54 0 0 1-1.58-1.58z" data-name="path1 fill"></path><path fill="#ff7262" d="M12.5 7.89H14A1.54 1.54 0 0 1 14 11h-1.5z" data-name="path2 fill"></path><path fill="#1abcfe" d="M15.58 12.5A1.54 1.54 0 1 1 14 11a1.54 1.54 0 0 1 1.58 1.5z" data-name="path3 fill"></path></g></g></g></g></svg>